# xmcd
#
# Track frame offsets:
#	187
#	17904
#	34557
#	53099
#	68127
#	81657
#	104434
#	122317
#	139074
#	153239
#	174162
#	193452
#	218679
#
# Disc length: 3212 seconds
#
# Revision: 0
# Processed by: cddbd v1.5.2PL0 Copyright (c) Steve Scherf et al.
# Submitted via: audiograbber 1.83.01
#
DISCID=ae0c8a0d
DTITLE=Various Artist - Celtic Christmas
DYEAR=1995
DGENRE=Christmas
TTITLE0=Phil Cunningham and Mánus Lunny - When The Snow Melts
TTITLE1=Tríona Ní Dhomhnaill - Solus
TTITLE2=Kevin Burke and Mícheál Ó Domhnaill - On A Cold Winter's Day  Christmas E
TTITLE2=ve
TTITLE3=Liam O'Flynn - The Winter's End
TTITLE4=Luka Bloom - Ciara
TTITLE5=Cormac Breatnach - Nollaig Na MBan
TTITLE6=Maighread Ní Dhomhnaill and Donal Lunny - Third Carol For Christmas Day
TTITLE7=Nightnoise - Snow On High Ground
TTITLE8=Carlos Núñez - Galician Carol
TTITLE9=Altan - Soillse Na Nollag
TTITLE10=Johnny Cunnigham - King Holly, King Oak
TTITLE11=Loreena McKennitt - Snow
TTITLE12=Jeff Johnson and Brian Dunning - We Follow A Star
EXTD=
EXTT0=
EXTT1=
EXTT2=
EXTT3=
EXTT4=
EXTT5=
EXTT6=
EXTT7=
EXTT8=
EXTT9=
EXTT10=
EXTT11=
EXTT12=
PLAYORDER=
